<svg width="1018" height="1203" viewBox="0 0 1018 1203" fill="none" xmlns="http://www.w3.org/2000/svg">
<path d="M657.885 711.911L873.692 559.786L936.192 686.147L709.516 803.862L657.885 711.911Z" fill="#D28D8E"/>
<path d="M560.342 606.864L799.477 410.178L870.117 537.921L638.725 697.909L560.342 606.864Z" fill="#D28D8E"/>
<path d="M565.352 367.14L632.518 422.113L633.837 488.787L578.697 530.171L480.133 525.948L535.885 593.139L670.609 477.837L795.785 371.655L687.338 250.656L565.352 367.14Z" fill="#D28D8E"/>
<path d="M431.083 251.161L547.154 342.078L667.987 228.527L582.76 123.004L431.083 251.161Z" fill="#D28D8E"/>
<path d="M186.897 1255.07L330.227 947.364L117.04 481.881L384.711 254.652L602.538 440.78L598.399 478.297L562.036 504.791L467.324 512.979L410.412 447.072L358.538 496.238L480.974 604.222L524.179 905.741L523.805 643.593L617.703 726.777L686.343 832.094L833.187 760.15C811.01 838.584 739.367 1007.02 630.216 1053.32L530.989 1356.92L186.897 1255.07Z" fill="#D28D8E"/>
<path d="M282.757 933.313L138.185 1240.65L95.0653 1227.89L230.161 917.744L0.000461796 447.236L349.589 150.679L373.431 175.355L599.322 9.45757e-06L752.476 187.672L891.109 343.444L850.404 381.978L958.648 483.56L1017.91 742.307L886.437 816.974C867.17 902.377 817.92 1044.94 713.329 1077.92L616.578 1382.26L577.041 1370.55L676.667 1067.07C784.163 1031.23 838.893 882.785 858.901 795.46L976.423 725.754L921.851 512.775L805.721 389.085L850.733 342.443L717.946 206.827L599.076 52.0757L385.689 227.201L361.132 210.925L61.8767 459.314L282.757 933.313Z" fill="#3A1213"/>
<path fill-rule="evenodd" clip-rule="evenodd" d="M186.897 1255.07L330.227 947.364L117.04 481.881L384.711 254.652L602.538 440.78L598.399 478.297L562.036 504.791L467.324 512.979L410.412 447.072L358.538 496.238L480.974 604.222L524.179 905.741L523.805 643.593L617.703 726.777L686.343 832.094L833.187 760.15C811.01 838.584 739.367 1007.02 630.216 1053.32L530.989 1356.92L577.041 1370.55L676.667 1067.07C784.163 1031.23 838.893 882.785 858.901 795.46L976.423 725.754L921.851 512.775L805.721 389.085L850.733 342.443L717.946 206.827L599.076 52.0757L385.689 227.201L361.132 210.925L61.8767 459.314L282.757 933.313L138.185 1240.65L186.897 1255.07ZM431.083 251.161L547.154 342.078L667.987 228.527L582.76 123.004L431.083 251.161ZM565.352 367.14L632.518 422.113L633.837 488.787L578.697 530.171L480.133 525.948L535.885 593.139L670.609 477.837L795.785 371.655L687.338 250.656L565.352 367.14ZM560.342 606.864L799.477 410.178L870.117 537.921L638.725 697.909L560.342 606.864ZM657.885 711.911L873.692 559.786L936.192 686.147L709.516 803.862L657.885 711.911ZM492.953 589.109L407.551 471.959L391.251 490.461L489.221 591.27L492.953 589.109Z" fill="#9E3032"/>
<path d="M407.551 471.959L492.953 589.109L489.221 591.27L391.251 490.461L407.551 471.959Z" fill="#3A1213"/>
</svg>
